<svg width="200" height="200" xmlns="http://www.w3.org/2000/svg">
  <rect width="200" height="200" fill="#f5f5f5"/>
  <circle cx="100" cy="100" r="70" fill="#FFF8E1"/>
  
  <!-- 披薩底 -->
  <circle cx="100" cy="100" r="60" fill="#FFA726" stroke="#FB8C00" stroke-width="2"/>
  <circle cx="100" cy="100" r="55" fill="#FFCC80"/>
  
  <!-- 番茄醬 -->
  <circle cx="100" cy="100" r="50" fill="#E53935"/>
  
  <!-- 起司 -->
  <circle cx="100" cy="100" r="48" fill="#FFF176"/>
  
  <!-- 海鮮配料 -->
  <!-- 蝦子 -->
  <path d="M70,80 C75,75 80,75 85,80" fill="#EF9A9A" stroke="#E57373" stroke-width="2" stroke-linecap="round"/>
  <path d="M120,90 C125,85 130,85 135,90" fill="#EF9A9A" stroke="#E57373" stroke-width="2" stroke-linecap="round"/>
  
  <!-- 章魚 -->
  <circle cx="90" cy="110" r="6" fill="#CE93D8"/>
  <circle cx="110" cy="70" r="6" fill="#CE93D8"/>
  
  <!-- 蛤蜊 -->
  <ellipse cx="75" cy="100" rx="8" ry="5" fill="#BDBDBD" stroke="#9E9E9E" stroke-width="1"/>
  <ellipse cx="125" cy="110" rx="8" ry="5" fill="#BDBDBD" stroke="#9E9E9E" stroke-width="1"/>
  
  <!-- 魚片 -->
  <path d="M100,120 L110,130 L90,130 Z" fill="#B2DFDB"/>
  <path d="M100,80 L110,70 L90,70 Z" fill="#B2DFDB"/>
  
  <!-- 香草 -->
  <circle cx="80" cy="90" r="2" fill="#4CAF50"/>
  <circle cx="120" cy="80" r="2" fill="#4CAF50"/>
  <circle cx="90" cy="120" r="2" fill="#4CAF50"/>
  <circle cx="110" cy="110" r="2" fill="#4CAF50"/>
  <circle cx="100" cy="100" r="2" fill="#4CAF50"/>
  
  <text x="100" y="170" font-family="Arial" font-size="16" fill="#333333" text-anchor="middle">豪華海鮮披薩</text>
</svg>