<svg width="200" height="200" xmlns="http://www.w3.org/2000/svg">
  <rect width="200" height="200" fill="#f5f5f5"/>
  <circle cx="100" cy="100" r="70" fill="#FFF0E0"/>
  
  <!-- 碗 -->
  <ellipse cx="100" cy="120" rx="60" ry="20" fill="#FFFFFF" stroke="#DDDDDD" stroke-width="2"/>
  <path d="M40,120 C40,100 160,100 160,120" fill="none" stroke="#DDDDDD" stroke-width="2"/>
  
  <!-- 湯 -->
  <ellipse cx="100" cy="110" rx="50" ry="15" fill="#A52A2A"/>
  
  <!-- 麵條 -->
  <path d="M70,105 C80,95 90,115 100,105 C110,95 120,115 130,105" fill="none" stroke="#F5DEB3" stroke-width="4" stroke-linecap="round"/>
  <path d="M75,110 C85,100 95,120 105,110 C115,100 125,120 135,110" fill="none" stroke="#F5DEB3" stroke-width="4" stroke-linecap="round"/>
  
  <!-- 牛肉 -->
  <path d="M85,100 C90,95 95,95 100,100 C105,105 110,105 115,100" fill="#8B4513"/>
  
  <!-- 蔥花 -->
  <circle cx="80" cy="105" r="3" fill="#4CAF50"/>
  <circle cx="120" cy="105" r="3" fill="#4CAF50"/>
  <circle cx="100" cy="100" r="3" fill="#4CAF50"/>
  
  <text x="100" y="170" font-family="Arial" font-size="16" fill="#333333" text-anchor="middle">招牌牛肉麵</text>
</svg>