<svg width="200" height="200" xmlns="http://www.w3.org/2000/svg">
  <rect width="200" height="200" fill="#f5f5f5"/>
  <circle cx="100" cy="100" r="70" fill="#FFF3E0"/>
  
  <!-- 杯子 -->
  <path d="M70,60 L80,140 C80,150 120,150 120,140 L130,60" fill="#FFFFFF" stroke="#BDBDBD" stroke-width="2"/>
  
  <!-- 杯蓋 -->
  <path d="M65,60 L135,60" stroke="#BDBDBD" stroke-width="3"/>
  <path d="M70,55 L130,55" stroke="#BDBDBD" stroke-width="2"/>
  <circle cx="100" cy="55" r="5" fill="#FFFFFF" stroke="#BDBDBD" stroke-width="2"/>
  
  <!-- 吸管 -->
  <path d="M100,55 L100,130" fill="none" stroke="#F48FB1" stroke-width="6" stroke-linecap="round"/>
  
  <!-- 奶茶 -->
  <path d="M80,60 L90,140 C90,145 110,145 110,140 L120,60" fill="#795548"/>
  
  <!-- 珍珠 -->
  <circle cx="85" cy="130" r="4" fill="#3E2723"/>
  <circle cx="95" cy="135" r="4" fill="#3E2723"/>
  <circle cx="105" cy="135" r="4" fill="#3E2723"/>
  <circle cx="115" cy="130" r="4" fill="#3E2723"/>
  <circle cx="90" cy="125" r="4" fill="#3E2723"/>
  <circle cx="100" cy="125" r="4" fill="#3E2723"/>
  <circle cx="110" cy="125" r="4" fill="#3E2723"/>
  <circle cx="95" cy="120" r="4" fill="#3E2723"/>
  <circle cx="105" cy="120" r="4" fill="#3E2723"/>
  
  <!-- 冰塊 -->
  <path d="M85,80 L95,90 L85,90 Z" fill="#FFFFFF" fill-opacity="0.5"/>
  <path d="M105,85 L115,95 L105,95 Z" fill="#FFFFFF" fill-opacity="0.5"/>
  <path d="M90,100 L100,110 L90,110 Z" fill="#FFFFFF" fill-opacity="0.5"/>
  
  <text x="100" y="170" font-family="Arial" font-size="16" fill="#333333" text-anchor="middle">黑糖珍珠奶茶</text>
</svg>