<svg width="800" height="400" viewBox="0 0 800 400" xmlns="http://www.w3.org/2000/svg">
  <!-- 背景 -->
  <rect width="800" height="400" fill="#F3E5F5" opacity="0.8"/>
  
  <!-- 裝飾圖案 - 甜點飲料主題 -->
  <!-- 珍珠奶茶圖案 -->
  <g transform="translate(100, 80)" opacity="0.15">
    <rect x="0" y="0" width="60" height="100" rx="10" ry="10" fill="#8E24AA"/>
    <rect x="0" y="0" width="60" height="40" rx="10" ry="10" fill="#6A1B9A"/>
    <rect x="20" y="-10" width="20" height="20" rx="10" ry="10" fill="#8E24AA"/>
    <circle cx="15" cy="70" r="5" fill="#6A1B9A"/>
    <circle cx="30" cy="80" r="5" fill="#6A1B9A"/>
    <circle cx="45" cy="75" r="5" fill="#6A1B9A"/>
    <circle cx="25" cy="90" r="5" fill="#6A1B9A"/>
    <circle cx="40" cy="65" r="5" fill="#6A1B9A"/>
  </g>
  
  <!-- 蛋糕圖案 -->
  <g transform="translate(650, 150)" opacity="0.15">
    <path d="M0,0 L80,0 L70,20 L10,20 Z" fill="#CE93D8"/>
    <path d="M10,20 L70,20 L65,40 L15,40 Z" fill="#AB47BC"/>
    <path d="M15,40 L65,40 L60,60 L20,60 Z" fill="#8E24AA"/>
    <rect x="35" y="-30" width="10" height="30" fill="#6A1B9A"/>
    <circle cx="40" cy="-35" r="8" fill="#E91E63"/>
  </g>
  
  <!-- 冰淇淋圖案 -->
  <g transform="translate(200, 250)" opacity="0.15">
    <path d="M0,0 Q25,-40 50,0" fill="#CE93D8" stroke="#8E24AA" stroke-width="2"/>
    <path d="M10,0 L40,0 L25,50 Z" fill="#AB47BC" stroke="#8E24AA" stroke-width="2"/>
  </g>
  
  <!-- 馬卡龍圖案 -->
  <g transform="translate(500, 80)" opacity="0.15">
    <ellipse cx="25" cy="10" rx="25" ry="10" fill="#E1BEE7"/>
    <ellipse cx="25" cy="30" rx="25" ry="10" fill="#CE93D8"/>
    <rect x="0" y="10" width="50" height="20" fill="#BA68C8"/>
  </g>
  
  <!-- 咖啡圖案 -->
  <g transform="translate(350, 320)" opacity="0.15">
    <path d="M10,0 L50,0 L60,50 L0,50 Z" fill="#6A1B9A"/>
    <path d="M0,10 L60,10" stroke="#E1BEE7" stroke-width="2"/>
    <path d="M65,15 Q75,25 65,35" stroke="#8E24AA" stroke-width="3" fill="none"/>
  </g>
  
  <!-- 甜甜圈圖案 -->
  <g transform="translate(400, 100)" opacity="0.15">
    <circle cx="30" cy="30" r="30" fill="#CE93D8"/>
    <circle cx="30" cy="30" r="10" fill="#F3E5F5"/>
    <path d="M30,0 Q45,15 60,30" stroke="#E1BEE7" stroke-width="3" fill="none"/>
    <path d="M30,0 Q15,15 0,30" stroke="#E1BEE7" stroke-width="3" fill="none"/>
  </g>
  
  <!-- 棒棒糖圖案 -->
  <g transform="translate(150, 150)" opacity="0.15">
    <circle cx="0" cy="0" r="25" fill="#CE93D8" stroke="#8E24AA" stroke-width="2"/>
    <rect x="-3" y="20" width="6" height="50" fill="#8E24AA" transform="rotate(45, 0, 0)"/>
    <path d="M-15,-15 L15,-15 M-15,0 L15,0 M-15,15 L15,15" stroke="#E1BEE7" stroke-width="2"/>
  </g>
  
  <!-- 水果茶圖案 -->
  <g transform="translate(600, 300)" opacity="0.15">
    <rect x="0" y="0" width="50" height="70" rx="5" ry="5" fill="#8E24AA"/>
    <circle cx="15" cy="20" r="10" fill="#E91E63"/> <!-- 草莓 -->
    <circle cx="35" cy="25" r="8" fill="#FFA000"/> <!-- 橙子 -->
    <circle cx="20" cy="40" r="7" fill="#7CB342"/> <!-- 奇異果 -->
    <rect x="20" y="-10" width="10" height="15" fill="#6A1B9A"/> <!-- 吸管 -->
  </g>
  
  <!-- 裝飾元素 - 小點點 -->
  <g opacity="0.1">
    <circle cx="50" cy="50" r="3" fill="#8E24AA"/>
    <circle cx="100" cy="200" r="3" fill="#8E24AA"/>
    <circle cx="250" cy="100" r="3" fill="#8E24AA"/>
    <circle cx="300" cy="250" r="3" fill="#8E24AA"/>
    <circle cx="450" cy="50" r="3" fill="#8E24AA"/>
    <circle cx="500" cy="200" r="3" fill="#8E24AA"/>
    <circle cx="650" cy="100" r="3" fill="#8E24AA"/>
    <circle cx="700" cy="300" r="3" fill="#8E24AA"/>
    <circle cx="750" cy="350" r="3" fill="#8E24AA"/>
    <circle cx="150" cy="350" r="3" fill="#8E24AA"/>
    <circle cx="350" cy="150" r="3" fill="#8E24AA"/>
    <circle cx="550" cy="350" r="3" fill="#8E24AA"/>
  </g>
  
  <!-- 裝飾線條 -->
  <g opacity="0.1" stroke="#8E24AA" stroke-width="2" fill="none">
    <path d="M0,100 Q200,150 400,100 T800,150"/>
    <path d="M0,300 Q200,250 400,300 T800,250"/>
  </g>
  
  <!-- 裝飾圓形 -->
  <circle cx="400" cy="200" r="150" fill="#CE93D8" opacity="0.05"/>
  <circle cx="400" cy="200" r="100" fill="#AB47BC" opacity="0.05"/>
  <circle cx="400" cy="200" r="50" fill="#8E24AA" opacity="0.05"/>
</svg>