<svg width="200" height="200" xmlns="http://www.w3.org/2000/svg">
  <rect width="200" height="200" fill="#f5f5f5"/>
  <circle cx="100" cy="100" r="70" fill="#E8F5E9"/>
  
  <!-- 碗 -->
  <ellipse cx="100" cy="120" rx="60" ry="20" fill="#FFFFFF" stroke="#DDDDDD" stroke-width="2"/>
  <path d="M40,120 C40,100 160,100 160,120" fill="none" stroke="#DDDDDD" stroke-width="2"/>
  
  <!-- 咖哩 -->
  <ellipse cx="100" cy="110" rx="50" ry="15" fill="#66BB6A"/>
  
  <!-- 雞肉 -->
  <path d="M80,105 L90,100 L100,105 L110,100 L120,105" fill="#FFCC80" stroke="#FFA726" stroke-width="1"/>
  
  <!-- 蔬菜 -->
  <circle cx="75" cy="105" r="4" fill="#F44336"/> <!-- 紅辣椒 -->
  <circle cx="85" cy="110" r="4" fill="#F44336"/> <!-- 紅辣椒 -->
  <path d="M95,105 L100,100 L105,105" fill="#AED581" stroke="#8BC34A" stroke-width="1"/> <!-- 青椒 -->
  <path d="M115,105 L120,100 L125,105" fill="#AED581" stroke="#8BC34A" stroke-width="1"/> <!-- 青椒 -->
  
  <!-- 香草和裝飾 -->
  <circle cx="70" cy="100" r="2" fill="#4CAF50"/>
  <circle cx="130" cy="100" r="2" fill="#4CAF50"/>
  <circle cx="100" cy="95" r="2" fill="#4CAF50"/>
  
  <!-- 米飯 -->
  <ellipse cx="140" cy="120" rx="15" ry="10" fill="#FFFFFF" stroke="#EEEEEE" stroke-width="1"/>
  <ellipse cx="140" cy="118" rx="12" ry="8" fill="#FAFAFA"/>
  
  <text x="100" y="170" font-family="Arial" font-size="16" fill="#333333" text-anchor="middle">泰式綠咖哩雞</text>
</svg>