<svg width="800" height="400" viewBox="0 0 800 400" xmlns="http://www.w3.org/2000/svg">
  <!-- 背景 -->
  <rect width="800" height="400" fill="#E8F5E9" opacity="0.8"/>
  
  <!-- 幾何圖案 - 義大利風格格子 -->
  <g opacity="0.1">
    <path d="M0 0 L800 0 L800 400 L0 400 Z" fill="none" stroke="#388E3C" stroke-width="2"/>
    <path d="M100 0 L100 400" stroke="#388E3C" stroke-width="1"/>
    <path d="M200 0 L200 400" stroke="#388E3C" stroke-width="1"/>
    <path d="M300 0 L300 400" stroke="#388E3C" stroke-width="1"/>
    <path d="M400 0 L400 400" stroke="#388E3C" stroke-width="1"/>
    <path d="M500 0 L500 400" stroke="#388E3C" stroke-width="1"/>
    <path d="M600 0 L600 400" stroke="#388E3C" stroke-width="1"/>
    <path d="M700 0 L700 400" stroke="#388E3C" stroke-width="1"/>
    
    <path d="M0 50 L800 50" stroke="#388E3C" stroke-width="1"/>
    <path d="M0 100 L800 100" stroke="#388E3C" stroke-width="1"/>
    <path d="M0 150 L800 150" stroke="#388E3C" stroke-width="1"/>
    <path d="M0 200 L800 200" stroke="#388E3C" stroke-width="1"/>
    <path d="M0 250 L800 250" stroke="#388E3C" stroke-width="1"/>
    <path d="M0 300 L800 300" stroke="#388E3C" stroke-width="1"/>
    <path d="M0 350 L800 350" stroke="#388E3C" stroke-width="1"/>
  </g>
  
  <!-- 橄欖枝圖案 -->
  <g opacity="0.15">
    <!-- 左上角橄欖枝 -->
    <g transform="translate(50, 50) rotate(45)">
      <path d="M0 0 C10 -10, 20 -15, 30 -10 C40 -5, 50 0, 60 -5 C70 -10, 80 -5, 90 0" 
            fill="none" stroke="#1B5E20" stroke-width="2"/>
      
      <!-- 橄欖葉 -->
      <g transform="translate(30, -10)">
        <ellipse cx="0" cy="0" rx="8" ry="3" fill="#388E3C" transform="rotate(30)"/>
      </g>
      <g transform="translate(60, -5)">
        <ellipse cx="0" cy="0" rx="8" ry="3" fill="#388E3C" transform="rotate(-20)"/>
      </g>
      <g transform="translate(90, 0)">
        <ellipse cx="0" cy="0" rx="8" ry="3" fill="#388E3C" transform="rotate(15)"/>
      </g>
    </g>
    
    <!-- 右上角橄欖枝 -->
    <g transform="translate(700, 80) rotate(-30)">
      <path d="M0 0 C10 -10, 20 -15, 30 -10 C40 -5, 50 0, 60 -5 C70 -10, 80 -5, 90 0" 
            fill="none" stroke="#1B5E20" stroke-width="2"/>
      
      <!-- 橄欖葉 -->
      <g transform="translate(30, -10)">
        <ellipse cx="0" cy="0" rx="8" ry="3" fill="#388E3C" transform="rotate(30)"/>
      </g>
      <g transform="translate(60, -5)">
        <ellipse cx="0" cy="0" rx="8" ry="3" fill="#388E3C" transform="rotate(-20)"/>
      </g>
      <g transform="translate(90, 0)">
        <ellipse cx="0" cy="0" rx="8" ry="3" fill="#388E3C" transform="rotate(15)"/>
      </g>
    </g>
    
    <!-- 左下角橄欖枝 -->
    <g transform="translate(100, 320) rotate(15)">
      <path d="M0 0 C10 -10, 20 -15, 30 -10 C40 -5, 50 0, 60 -5 C70 -10, 80 -5, 90 0" 
            fill="none" stroke="#1B5E20" stroke-width="2"/>
      
      <!-- 橄欖葉 -->
      <g transform="translate(30, -10)">
        <ellipse cx="0" cy="0" rx="8" ry="3" fill="#388E3C" transform="rotate(30)"/>
      </g>
      <g transform="translate(60, -5)">
        <ellipse cx="0" cy="0" rx="8" ry="3" fill="#388E3C" transform="rotate(-20)"/>
      </g>
      <g transform="translate(90, 0)">
        <ellipse cx="0" cy="0" rx="8" ry="3" fill="#388E3C" transform="rotate(15)"/>
      </g>
    </g>
  </g>
  
  <!-- 葡萄藤圖案 -->
  <g opacity="0.2">
    <!-- 右側葡萄藤 -->
    <g transform="translate(650, 200)">
      <path d="M0 0 C20 -20, 40 -10, 60 -30 C80 -50, 100 -40, 120 -60" 
            fill="none" stroke="#1B5E20" stroke-width="2"/>
      
      <!-- 葡萄 -->
      <g transform="translate(30, -15)">
        <circle cx="0" cy="0" r="5" fill="#7CB342"/>
        <circle cx="-6" cy="-3" r="5" fill="#7CB342"/>
        <circle cx="-3" cy="-8" r="5" fill="#7CB342"/>
        <circle cx="6" cy="-4" r="5" fill="#7CB342"/>
        <circle cx="3" cy="-9" r="5" fill="#7CB342"/>
      </g>
      
      <g transform="translate(90, -40)">
        <circle cx="0" cy="0" r="5" fill="#7CB342"/>
        <circle cx="-6" cy="-3" r="5" fill="#7CB342"/>
        <circle cx="-3" cy="-8" r="5" fill="#7CB342"/>
        <circle cx="6" cy="-4" r="5" fill="#7CB342"/>
        <circle cx="3" cy="-9" r="5" fill="#7CB342"/>
      </g>
    </g>
    
    <!-- 左側葡萄藤 -->
    <g transform="translate(150, 150)">
      <path d="M0 0 C-20 20, -40 10, -60 30 C-80 50, -100 40, -120 60" 
            fill="none" stroke="#1B5E20" stroke-width="2"/>
      
      <!-- 葡萄 -->
      <g transform="translate(-30, 15)">
        <circle cx="0" cy="0" r="5" fill="#7CB342"/>
        <circle cx="-6" cy="3" r="5" fill="#7CB342"/>
        <circle cx="-3" cy="8" r="5" fill="#7CB342"/>
        <circle cx="6" cy="4" r="5" fill="#7CB342"/>
        <circle cx="3" cy="9" r="5" fill="#7CB342"/>
      </g>
      
      <g transform="translate(-90, 40)">
        <circle cx="0" cy="0" r="5" fill="#7CB342"/>
        <circle cx="-6" cy="3" r="5" fill="#7CB342"/>
        <circle cx="-3" cy="8" r="5" fill="#7CB342"/>
        <circle cx="6" cy="4" r="5" fill="#7CB342"/>
        <circle cx="3" cy="9" r="5" fill="#7CB342"/>
      </g>
    </g>
  </g>
  
  <!-- 義大利國旗色彩裝飾 -->
  <g opacity="0.1">
    <rect x="0" y="0" width="10" height="400" fill="#009246"/> <!-- 綠色 -->
    <rect x="790" y="0" width="10" height="400" fill="#CE2B37"/> <!-- 紅色 -->
  </g>
  
  <!-- 披薩和義大利麵圖案 -->
  <g opacity="0.15">
    <!-- 簡化的披薩 -->
    <g transform="translate(400, 100) scale(0.5)">
      <circle cx="0" cy="0" r="30" fill="#FFC107" stroke="#E65100" stroke-width="2"/>
      <circle cx="-10" cy="-5" r="3" fill="#CE2B37"/> <!-- 番茄 -->
      <circle cx="10" cy="5" r="3" fill="#CE2B37"/> <!-- 番茄 -->
      <circle cx="0" cy="15" r="3" fill="#CE2B37"/> <!-- 番茄 -->
      <circle cx="-15" cy="10" r="2" fill="#388E3C"/> <!-- 羅勒 -->
      <circle cx="15" cy="-10" r="2" fill="#388E3C"/> <!-- 羅勒 -->
    </g>
    
    <!-- 簡化的義大利麵 -->
    <g transform="translate(200, 250) scale(0.5)">
      <path d="M-20 -10 C-10 -15, 0 -5, 10 -10 C20 -15, 30 -5, 40 -10" 
            fill="none" stroke="#FFC107" stroke-width="4" stroke-linecap="round"/>
      <path d="M-20 0 C-10 -5, 0 5, 10 0 C20 -5, 30 5, 40 0" 
            fill="none" stroke="#FFC107" stroke-width="4" stroke-linecap="round"/>
      <path d="M-20 10 C-10 5, 0 15, 10 10 C20 5, 30 15, 40 10" 
            fill="none" stroke="#FFC107" stroke-width="4" stroke-linecap="round"/>
    </g>
    
    <!-- 簡化的橄欖油瓶 -->
    <g transform="translate(500, 300) scale(0.4)">
      <path d="M0 -30 L-10 -10 L-10 20 C-10 30, 10 30, 10 20 L10 -10 Z" 
            fill="none" stroke="#1B5E20" stroke-width="2"/>
      <rect x="-5" y="-40" width="10" height="10" fill="none" stroke="#1B5E20" stroke-width="2"/>
      <rect x="-15" y="20" width="30" height="10" fill="#FFC107" opacity="0.5"/>
    </g>
  </g>
</svg>