<svg width="200" height="200" xmlns="http://www.w3.org/2000/svg">
  <defs>
    <pattern id="japanese-pattern" patternUnits="userSpaceOnUse" width="50" height="50">
      <!-- 櫻花圖案 -->
      <g fill="#D32F2F" opacity="0.1">
        <circle cx="25" cy="25" r="3"/>
        <circle cx="20" cy="20" r="2"/>
        <circle cx="30" cy="20" r="2"/>
        <circle cx="20" cy="30" r="2"/>
        <circle cx="30" cy="30" r="2"/>
        <path d="M25,22 Q27,25 25,28 Q23,25 25,22" />
        <path d="M22,25 Q25,27 28,25 Q25,23 22,25" />
      </g>
      
      <!-- 波浪圖案 -->
      <path d="M0,10 Q5,5 10,10 Q15,15 20,10 Q25,5 30,10 Q35,15 40,10 Q45,5 50,10" 
            stroke="#1A237E" stroke-width="0.5" fill="none" opacity="0.1" />
      <path d="M0,30 Q5,25 10,30 Q15,35 20,30 Q25,25 30,30 Q35,35 40,30 Q45,25 50,30" 
            stroke="#1A237E" stroke-width="0.5" fill="none" opacity="0.1" />
      
      <!-- 格子圖案 -->
      <path d="M0,0 L0,50 M50,0 L50,50 M0,0 L50,0 M0,50 L50,50" 
            stroke="#333" stroke-width="0.2" opacity="0.05" />
    </pattern>
  </defs>
  
  <rect width="100%" height="100%" fill="url(#japanese-pattern)" />
</svg>